<svg version="1.1" id="Layer_1" xmlns="http://www.w3.org/2000/svg" xmlns:xlink="http://www.w3.org/1999/xlink" x="0px" y="0px"
	 width="100%" viewBox="0 0 1005 188" enable-background="new 0 0 1005 188" xml:space="preserve">
<path fill="#4084FE" opacity="1.000000" stroke="none" 
	d="
M740.000000,189.000000 
	C493.333344,189.000000 247.166672,189.000000 1.000000,189.000000 
	C1.000000,126.333336 1.000000,63.666668 1.000000,1.000000 
	C336.000000,1.000000 671.000000,1.000000 1006.000000,1.000000 
	C1006.000000,63.666668 1006.000000,126.333336 1006.000000,189.000000 
	C917.500000,189.000000 829.000000,189.000000 740.000000,189.000000 
M832.821899,97.500031 
	C832.821899,122.635277 832.821899,147.770523 832.821899,173.534775 
	C835.246643,173.534775 837.207520,173.534790 839.168396,173.534775 
	C865.330017,173.534515 891.491699,173.540024 917.653320,173.532776 
	C970.347351,173.518158 1009.816650,128.687576 1003.169312,76.408058 
	C998.897949,42.815216 974.162292,14.422827 941.211121,5.290355 
	C908.122986,-3.880087 872.277222,7.888383 851.137512,34.751163 
	C836.832336,52.929146 831.518799,73.719910 832.821899,97.500031 
M358.536621,110.500183 
	C358.536621,94.884941 358.536621,79.269707 358.536621,63.414536 
	C350.935913,63.414536 344.025909,63.414536 336.462280,63.414536 
	C336.462280,65.463112 336.462341,67.249962 336.462250,69.036804 
	C336.461517,81.034012 336.703583,93.038551 336.342224,105.024887 
	C336.194550,109.924042 335.500031,115.083389 333.718994,119.597549 
	C330.285126,128.301086 321.050690,132.530487 311.468903,130.777542 
	C303.476074,129.315308 298.615875,123.057770 297.959198,113.324150 
	C297.847229,111.664192 297.857361,109.994209 297.856323,108.328835 
	C297.848236,95.165230 297.860779,82.001602 297.839264,68.838028 
	C297.836395,67.073967 297.678741,65.310158 297.592621,63.543324 
	C272.614349,62.746704 248.173538,61.356033 223.735764,61.407425 
	C208.018173,61.440479 196.467484,70.966850 193.378448,84.289421 
	C190.753769,95.609192 193.324265,105.765083 201.990097,114.185890 
	C197.579880,118.923325 193.416077,123.416977 189.227768,127.887688 
	C186.446915,130.856064 186.811859,133.536072 189.986160,135.876907 
	C192.185501,137.498749 194.487564,138.981308 197.355530,140.945023 
	C195.843613,142.173508 194.569550,143.011261 193.534256,144.080246 
	C182.502655,155.470825 184.614670,173.082214 198.587540,180.583298 
	C204.440247,183.725235 211.343842,185.612961 217.974426,186.451263 
	C230.495880,188.034363 243.032883,187.568863 253.933456,179.757645 
	C263.480499,172.916367 266.680481,163.255981 264.799591,152.076782 
	C263.069550,141.794403 255.654922,136.439224 246.157272,134.168243 
	C239.393539,132.550964 232.358475,132.095001 225.470978,130.960068 
	C220.408569,130.125900 215.389023,129.031540 209.952042,127.975777 
	C212.943024,122.749962 216.005615,121.134933 220.908539,121.982491 
	C225.097153,122.706558 229.556931,122.470848 233.826599,122.009750 
	C250.521027,120.206871 261.638458,107.486458 261.092773,90.768799 
	C260.955902,86.576256 259.875183,82.414528 259.158234,77.786690 
	C264.694366,77.520340 270.059265,77.262222 275.821472,76.985001 
	C275.821472,79.592087 275.813324,81.401062 275.822784,83.209930 
	C275.880280,94.205894 275.729919,105.208023 276.051086,116.196342 
	C276.548157,133.203140 285.158966,145.409622 299.126862,148.570587 
	C313.121338,151.737564 325.614563,149.192749 335.081451,137.364456 
	C335.555267,136.772446 336.212769,136.327438 337.292847,135.357910 
	C337.967407,139.801956 338.551788,143.651718 339.150421,147.595581 
	C345.647369,147.595581 351.746735,147.595581 358.536224,147.595581 
	C358.536224,135.399582 358.536224,123.449890 358.536621,110.500183 
M30.095280,124.322136 
	C28.110941,120.187553 26.126602,116.052963 24.054726,111.735985 
	C17.153664,111.735985 9.866526,111.735985 2.210124,111.735985 
	C2.197608,122.739799 5.800457,131.861984 13.963463,138.907318 
	C27.579308,150.658890 52.959034,153.398148 69.648430,145.029007 
	C82.101723,138.784119 88.586510,128.580154 88.925034,114.709206 
	C89.267044,100.695839 82.409515,90.974289 70.010216,85.040573 
	C65.223335,82.749794 60.226810,80.883217 55.273945,78.956696 
	C49.236610,76.608345 42.957848,74.795113 37.122868,72.033409 
	C29.572664,68.459900 26.785482,62.752022 28.317739,55.989624 
	C29.774837,49.558926 35.343750,45.542500 43.300476,45.183720 
	C53.507622,44.723473 58.257008,48.499115 63.041161,60.865662 
	C70.485176,60.865662 77.919052,60.865662 85.757988,60.865662 
	C85.413742,49.091137 80.922401,39.676682 71.134148,33.837444 
	C54.182919,23.725094 36.577583,23.701265 19.461912,33.449425 
	C0.746019,44.108982 -1.146349,75.252724 19.820833,86.656868 
	C24.330826,89.109879 29.122923,91.072258 33.872757,93.050056 
	C42.136143,96.490883 50.697456,99.303986 58.695808,103.264839 
	C64.740044,106.257996 66.170296,112.308533 65.252007,118.748642 
	C64.370552,124.930382 60.322338,128.546509 54.656075,130.065735 
	C45.857021,132.424911 37.466022,131.847549 30.095280,124.322136 
M437.244446,76.844444 
	C435.364410,81.342278 433.484344,85.840118 431.131714,91.468529 
	C439.047699,91.468529 445.470581,91.541412 451.887299,91.375748 
	C452.684204,91.355171 453.713470,90.212830 454.186951,89.345604 
	C459.114166,80.320694 469.209503,76.664696 478.793976,80.527473 
	C485.860291,83.375374 489.091644,89.639694 487.366547,97.831223 
	C479.683136,97.831223 471.889862,97.794350 464.097107,97.841499 
	C456.165131,97.889488 448.478912,99.148956 441.630859,103.434898 
	C426.108185,113.150017 426.253052,135.468796 441.841766,145.065994 
	C456.226318,153.921844 476.801971,150.517548 487.486176,137.522522 
	C487.962677,136.942963 488.514160,136.425034 489.500946,135.380753 
	C490.078125,138.960495 490.367004,141.904343 491.099182,144.733459 
	C491.397308,145.885391 492.616211,147.624344 493.487518,147.667892 
	C498.907837,147.938782 504.348389,147.804367 509.827667,147.804367 
	C509.827667,127.818497 510.203979,108.520599 509.651062,89.249352 
	C509.414551,81.005714 504.944427,74.157654 498.305084,68.942314 
	C484.134857,57.811287 451.204529,57.179016 437.244446,76.844444 
M663.054871,94.737564 
	C662.701721,98.875130 661.999512,103.017494 662.056458,107.149406 
	C662.288208,123.978630 669.018677,137.479477 684.482605,144.894867 
	C700.410522,152.532730 716.476318,152.072083 731.334656,141.556641 
	C738.280090,136.641251 742.897766,129.882278 745.384521,121.000053 
	C738.286194,121.000053 731.819092,120.890083 725.362427,121.100517 
	C724.188110,121.138786 722.709045,122.236763 721.963684,123.272369 
	C718.194824,128.509140 713.145569,131.149200 706.771484,131.640839 
	C694.501648,132.587219 683.291199,122.339836 684.615417,110.714584 
	C705.463257,110.714584 726.376282,110.714584 747.543274,110.714584 
	C749.181396,96.907455 746.959534,84.617317 737.583862,74.521461 
	C725.626160,61.645264 710.481445,58.849106 694.045410,62.589462 
	C677.324402,66.394638 667.556702,77.631248 663.054871,94.737564 
M147.499969,110.847435 
	C159.283508,110.847435 171.067032,110.847435 183.193497,110.847435 
	C183.443161,108.436653 183.807205,106.483917 183.822342,104.528473 
	C183.945908,88.569733 178.319885,75.290977 164.157242,67.165382 
	C149.179916,58.572392 133.374115,58.613068 118.439346,67.105835 
	C102.413055,76.219307 97.267311,91.325775 97.778923,109.068268 
	C98.326492,128.057678 110.484604,143.608109 128.908752,148.244019 
	C149.432571,153.408234 168.633621,145.871429 177.949219,128.893372 
	C179.230148,126.558861 180.057358,123.975410 181.310471,120.993546 
	C174.869385,120.993546 169.378296,121.137817 163.899658,120.938980 
	C160.656265,120.821259 158.568497,121.637642 156.505310,124.529114 
	C151.660263,131.319229 142.049530,133.419556 133.459091,130.292435 
	C124.965500,127.200577 119.777756,119.841484 120.152649,110.847397 
	C128.913177,110.847397 137.706558,110.847397 147.499969,110.847435 
M612.172485,61.574848 
	C603.211304,62.476280 595.361816,65.648186 589.633606,72.913300 
	C580.456970,84.552055 583.760498,99.474014 597.037903,105.967514 
	C600.453003,107.637695 604.104797,108.911522 607.760376,109.983383 
	C614.459900,111.947731 621.274719,113.518089 627.979004,115.467445 
	C631.570007,116.511589 634.124756,118.670967 634.163025,122.913597 
	C634.201599,127.188652 631.871033,129.757584 628.282043,131.347504 
	C619.642700,135.174759 609.215027,131.603012 604.514954,123.414429 
	C603.938416,122.410042 602.860046,121.002747 601.977112,120.975266 
	C595.359131,120.769279 588.731812,120.863136 581.815308,120.863136 
	C582.210327,127.344162 584.605225,132.343475 588.319458,136.772980 
	C601.254456,152.199005 633.092407,154.444962 648.106201,141.016464 
	C661.998962,128.590622 657.922668,107.169991 640.394226,100.993279 
	C635.699951,99.339088 630.786743,98.316147 626.010498,96.881844 
	C620.603699,95.258186 615.038208,93.947861 609.910217,91.671272 
	C604.695129,89.356003 604.657104,83.845772 609.354004,80.599800 
	C614.994568,76.701698 628.834778,77.206955 631.780212,85.186913 
	C632.116028,86.096573 633.242126,87.335358 634.032349,87.358047 
	C640.265930,87.537025 646.506958,87.457481 652.745667,87.457481 
	C653.179443,86.983276 653.613220,86.509064 654.046997,86.034859 
	C651.423340,81.209785 649.529541,75.758240 646.031921,71.683311 
	C637.368958,61.590496 625.401428,60.558239 612.172485,61.574848 
M394.179230,124.500961 
	C394.401917,117.188316 394.197693,109.831467 394.949066,102.573555 
	C396.029694,92.135330 402.314301,86.201897 412.812012,84.957382 
	C416.735901,84.492203 420.710815,84.457924 424.712891,84.224228 
	C424.712891,76.456627 424.712891,69.033249 424.712891,60.071262 
	C418.444763,61.984352 412.424591,62.892994 407.389801,65.620491 
	C402.387115,68.330574 398.375275,72.869728 393.780212,76.731781 
	C393.142090,72.384865 392.496124,67.984421 391.855743,63.622192 
	C385.150665,63.622192 378.788483,63.622192 372.485687,63.622192 
	C372.485687,91.831482 372.485687,119.566277 372.485687,147.575043 
	C379.725067,147.575043 386.626556,147.575043 394.178680,147.575043 
	C394.178680,140.044724 394.178680,132.772659 394.179230,124.500961 
M559.615967,64.959381 
	C554.826721,68.864120 550.037476,72.768860 545.220764,76.695976 
	C544.819763,73.554642 544.624878,70.058784 543.822571,66.708359 
	C543.500488,65.363396 541.904846,63.399326 540.784180,63.326439 
	C535.356018,62.973385 529.892212,63.167183 524.156982,63.167183 
	C524.156982,91.586044 524.156982,119.448235 524.156982,147.384216 
	C531.520935,147.384216 538.542969,147.384216 545.847717,147.384216 
	C545.847717,144.933868 545.840820,142.944565 545.848877,140.955338 
	C545.896545,129.131302 545.671692,117.297920 546.072571,105.485794 
	C546.502319,92.821091 553.230042,86.029678 565.865051,84.764587 
	C569.271362,84.423523 572.709290,84.398521 576.113953,84.229370 
	C576.113953,76.304939 576.113953,68.918739 576.113953,60.279915 
	C570.377869,61.857956 565.338135,63.244438 559.615967,64.959381 
z"/>
<path fill="#FCFDFF" opacity="1.000000" stroke="none" 
	d="
M832.821899,97.000069 
	C831.518799,73.719910 836.832336,52.929146 851.137512,34.751163 
	C872.277222,7.888383 908.122986,-3.880087 941.211121,5.290355 
	C974.162292,14.422827 998.897949,42.815216 1003.169312,76.408058 
	C1009.816650,128.687576 970.347351,173.518158 917.653320,173.532776 
	C891.491699,173.540024 865.330017,173.534515 839.168396,173.534775 
	C837.207520,173.534790 835.246643,173.534775 832.821899,173.534775 
	C832.821899,147.770523 832.821899,122.635277 832.821899,97.000069 
M854.532593,91.508224 
	C854.533813,109.995323 854.518616,128.482452 854.558167,146.969467 
	C854.562805,149.150543 853.816528,151.883942 857.661865,151.837036 
	C880.465515,151.558853 903.365051,152.574081 926.052246,150.822678 
	C961.854004,148.058884 986.994202,113.291245 981.066650,76.938400 
	C975.346069,41.854614 939.785400,17.811512 905.136536,25.600922 
	C874.481567,32.492474 854.894165,57.618446 854.532593,91.508224 
z"/>
<path fill="#FBFDFF" opacity="1.000000" stroke="none" 
	d="
M358.536438,111.000191 
	C358.536224,123.449890 358.536224,135.399582 358.536224,147.595581 
	C351.746735,147.595581 345.647369,147.595581 339.150421,147.595581 
	C338.551788,143.651718 337.967407,139.801956 337.292847,135.357910 
	C336.212769,136.327438 335.555267,136.772446 335.081451,137.364456 
	C325.614563,149.192749 313.121338,151.737564 299.126862,148.570587 
	C285.158966,145.409622 276.548157,133.203140 276.051086,116.196342 
	C275.729919,105.208023 275.880280,94.205894 275.822784,83.209930 
	C275.813324,81.401062 275.821472,79.592087 275.821472,76.985001 
	C270.059265,77.262222 264.694366,77.520340 259.158234,77.786690 
	C259.875183,82.414528 260.955902,86.576256 261.092773,90.768799 
	C261.638458,107.486458 250.521027,120.206871 233.826599,122.009750 
	C229.556931,122.470848 225.097153,122.706558 220.908539,121.982491 
	C216.005615,121.134933 212.943024,122.749962 209.952042,127.975777 
	C215.389023,129.031540 220.408569,130.125900 225.470978,130.960068 
	C232.358475,132.095001 239.393539,132.550964 246.157272,134.168243 
	C255.654922,136.439224 263.069550,141.794403 264.799591,152.076782 
	C266.680481,163.255981 263.480499,172.916367 253.933456,179.757645 
	C243.032883,187.568863 230.495880,188.034363 217.974426,186.451263 
	C211.343842,185.612961 204.440247,183.725235 198.587540,180.583298 
	C184.614670,173.082214 182.502655,155.470825 193.534256,144.080246 
	C194.569550,143.011261 195.843613,142.173508 197.355530,140.945023 
	C194.487564,138.981308 192.185501,137.498749 189.986160,135.876907 
	C186.811859,133.536072 186.446915,130.856064 189.227768,127.887688 
	C193.416077,123.416977 197.579880,118.923325 201.990097,114.185890 
	C193.324265,105.765083 190.753769,95.609192 193.378448,84.289421 
	C196.467484,70.966850 208.018173,61.440479 223.735764,61.407425 
	C248.173538,61.356033 272.614349,62.746704 297.592621,63.543324 
	C297.678741,65.310158 297.836395,67.073967 297.839264,68.838028 
	C297.860779,82.001602 297.848236,95.165230 297.856323,108.328835 
	C297.857361,109.994209 297.847229,111.664192 297.959198,113.324150 
	C298.615875,123.057770 303.476074,129.315308 311.468903,130.777542 
	C321.050690,132.530487 330.285126,128.301086 333.718994,119.597549 
	C335.500031,115.083389 336.194550,109.924042 336.342224,105.024887 
	C336.703583,93.038551 336.461517,81.034012 336.462250,69.036804 
	C336.462341,67.249962 336.462280,65.463112 336.462280,63.414536 
	C344.025909,63.414536 350.935913,63.414536 358.536621,63.414536 
	C358.536621,79.269707 358.536621,94.884941 358.536438,111.000191 
M234.433746,169.336960 
	C242.089890,166.891159 245.402740,163.144516 244.978439,157.411469 
	C244.567947,151.864914 241.100266,148.836349 233.097809,147.512329 
	C228.843857,146.808487 224.513245,146.571594 220.219421,146.103943 
	C214.177185,145.445877 208.789490,149.144287 207.216675,155.049988 
	C205.708908,160.711472 208.151688,166.171585 214.561142,167.799545 
	C220.675858,169.352646 227.254807,169.078125 234.433746,169.336960 
M239.203384,83.401451 
	C238.052490,82.453308 237.003525,81.332054 235.734406,80.584663 
	C226.360916,75.064514 213.393036,79.868835 212.007675,89.319717 
	C210.999512,96.197372 213.405533,101.299835 218.902527,103.941589 
	C225.485275,107.105133 234.548813,105.833054 238.901443,101.134705 
	C242.883087,96.836823 243.189957,90.254730 239.203384,83.401451 
z"/>
<path fill="#FCFDFF" opacity="1.000000" stroke="none" 
	d="
M30.330963,124.601715 
	C37.466022,131.847549 45.857021,132.424911 54.656075,130.065735 
	C60.322338,128.546509 64.370552,124.930382 65.252007,118.748642 
	C66.170296,112.308533 64.740044,106.257996 58.695808,103.264839 
	C50.697456,99.303986 42.136143,96.490883 33.872757,93.050056 
	C29.122923,91.072258 24.330826,89.109879 19.820833,86.656868 
	C-1.146349,75.252724 0.746019,44.108982 19.461912,33.449425 
	C36.577583,23.701265 54.182919,23.725094 71.134148,33.837444 
	C80.922401,39.676682 85.413742,49.091137 85.757988,60.865662 
	C77.919052,60.865662 70.485176,60.865662 63.041161,60.865662 
	C58.257008,48.499115 53.507622,44.723473 43.300476,45.183720 
	C35.343750,45.542500 29.774837,49.558926 28.317739,55.989624 
	C26.785482,62.752022 29.572664,68.459900 37.122868,72.033409 
	C42.957848,74.795113 49.236610,76.608345 55.273945,78.956696 
	C60.226810,80.883217 65.223335,82.749794 70.010216,85.040573 
	C82.409515,90.974289 89.267044,100.695839 88.925034,114.709206 
	C88.586510,128.580154 82.101723,138.784119 69.648430,145.029007 
	C52.959034,153.398148 27.579308,150.658890 13.963463,138.907318 
	C5.800457,131.861984 2.197608,122.739799 2.210124,111.735985 
	C9.866526,111.735985 17.153664,111.735985 24.054726,111.735985 
	C26.126602,116.052963 28.110941,120.187553 30.330963,124.601715 
z"/>
<path fill="#FCFDFF" opacity="1.000000" stroke="none" 
	d="
M437.462097,76.554260 
	C451.204529,57.179016 484.134857,57.811287 498.305084,68.942314 
	C504.944427,74.157654 509.414551,81.005714 509.651062,89.249352 
	C510.203979,108.520599 509.827667,127.818497 509.827667,147.804367 
	C504.348389,147.804367 498.907837,147.938782 493.487518,147.667892 
	C492.616211,147.624344 491.397308,145.885391 491.099182,144.733459 
	C490.367004,141.904343 490.078125,138.960495 489.500946,135.380753 
	C488.514160,136.425034 487.962677,136.942963 487.486176,137.522522 
	C476.801971,150.517548 456.226318,153.921844 441.841766,145.065994 
	C426.253052,135.468796 426.108185,113.150017 441.630859,103.434898 
	C448.478912,99.148956 456.165131,97.889488 464.097107,97.841499 
	C471.889862,97.794350 479.683136,97.831223 487.366547,97.831223 
	C489.091644,89.639694 485.860291,83.375374 478.793976,80.527473 
	C469.209503,76.664696 459.114166,80.320694 454.186951,89.345604 
	C453.713470,90.212830 452.684204,91.355171 451.887299,91.375748 
	C445.470581,91.541412 439.047699,91.468529 431.131714,91.468529 
	C433.484344,85.840118 435.364410,81.342278 437.462097,76.554260 
M473.643890,131.373337 
	C481.790100,128.025345 487.524261,119.412102 486.634796,112.024986 
	C478.853180,112.024986 471.063995,111.631943 463.336273,112.152199 
	C457.400360,112.551826 453.420166,117.068390 453.270081,122.058083 
	C453.116425,127.166626 456.879547,131.271118 463.085602,132.010056 
	C466.307709,132.393738 469.642761,131.828705 473.643890,131.373337 
z"/>
<path fill="#FCFDFF" opacity="1.000000" stroke="none" 
	d="
M663.132874,94.326538 
	C667.556702,77.631248 677.324402,66.394638 694.045410,62.589462 
	C710.481445,58.849106 725.626160,61.645264 737.583862,74.521461 
	C746.959534,84.617317 749.181396,96.907455 747.543274,110.714584 
	C726.376282,110.714584 705.463257,110.714584 684.615417,110.714584 
	C683.291199,122.339836 694.501648,132.587219 706.771484,131.640839 
	C713.145569,131.149200 718.194824,128.509140 721.963684,123.272369 
	C722.709045,122.236763 724.188110,121.138786 725.362427,121.100517 
	C731.819092,120.890083 738.286194,121.000053 745.384521,121.000053 
	C742.897766,129.882278 738.280090,136.641251 731.334656,141.556641 
	C716.476318,152.072083 700.410522,152.532730 684.482605,144.894867 
	C669.018677,137.479477 662.288208,123.978630 662.056458,107.149406 
	C661.999512,103.017494 662.701721,98.875130 663.132874,94.326538 
M686.454712,90.088310 
	C685.711426,92.214897 684.968079,94.341484 684.131897,96.733856 
	C698.286499,96.733856 711.838135,96.733856 725.412659,96.733856 
	C724.560425,87.657951 719.858948,82.053986 711.461060,79.867271 
	C701.826660,77.358574 692.606262,80.946861 686.454712,90.088310 
z"/>
<path fill="#FCFDFF" opacity="1.000000" stroke="none" 
	d="
M146.999969,110.847412 
	C137.706558,110.847397 128.913177,110.847397 120.152649,110.847397 
	C119.777756,119.841484 124.965500,127.200577 133.459091,130.292435 
	C142.049530,133.419556 151.660263,131.319229 156.505310,124.529114 
	C158.568497,121.637642 160.656265,120.821259 163.899658,120.938980 
	C169.378296,121.137817 174.869385,120.993546 181.310471,120.993546 
	C180.057358,123.975410 179.230148,126.558861 177.949219,128.893372 
	C168.633621,145.871429 149.432571,153.408234 128.908752,148.244019 
	C110.484604,143.608109 98.326492,128.057678 97.778923,109.068268 
	C97.267311,91.325775 102.413055,76.219307 118.439346,67.105835 
	C133.374115,58.613068 149.179916,58.572392 164.157242,67.165382 
	C178.319885,75.290977 183.945908,88.569733 183.822342,104.528473 
	C183.807205,106.483917 183.443161,108.436653 183.193497,110.847435 
	C171.067032,110.847435 159.283508,110.847435 146.999969,110.847412 
M122.096489,96.986580 
	C135.023804,96.986580 147.951111,96.986580 160.958878,96.986580 
	C160.958878,95.609253 161.084198,94.765045 160.939682,93.969879 
	C159.301773,84.957336 150.764435,78.703789 140.687424,79.093636 
	C130.250793,79.497406 121.217705,86.754944 120.265160,95.578789 
	C120.220612,95.991486 120.893013,96.481590 122.096489,96.986580 
z"/>
<path fill="#FCFDFF" opacity="1.000000" stroke="none" 
	d="
M612.616943,61.517868 
	C625.401428,60.558239 637.368958,61.590496 646.031921,71.683311 
	C649.529541,75.758240 651.423340,81.209785 654.046997,86.034859 
	C653.613220,86.509064 653.179443,86.983276 652.745667,87.457481 
	C646.506958,87.457481 640.265930,87.537025 634.032349,87.358047 
	C633.242126,87.335358 632.116028,86.096573 631.780212,85.186913 
	C628.834778,77.206955 614.994568,76.701698 609.354004,80.599800 
	C604.657104,83.845772 604.695129,89.356003 609.910217,91.671272 
	C615.038208,93.947861 620.603699,95.258186 626.010498,96.881844 
	C630.786743,98.316147 635.699951,99.339088 640.394226,100.993279 
	C657.922668,107.169991 661.998962,128.590622 648.106201,141.016464 
	C633.092407,154.444962 601.254456,152.199005 588.319458,136.772980 
	C584.605225,132.343475 582.210327,127.344162 581.815308,120.863136 
	C588.731812,120.863136 595.359131,120.769279 601.977112,120.975266 
	C602.860046,121.002747 603.938416,122.410042 604.514954,123.414429 
	C609.215027,131.603012 619.642700,135.174759 628.282043,131.347504 
	C631.871033,129.757584 634.201599,127.188652 634.163025,122.913597 
	C634.124756,118.670967 631.570007,116.511589 627.979004,115.467445 
	C621.274719,113.518089 614.459900,111.947731 607.760376,109.983383 
	C604.104797,108.911522 600.453003,107.637695 597.037903,105.967514 
	C583.760498,99.474014 580.456970,84.552055 589.633606,72.913300 
	C595.361816,65.648186 603.211304,62.476280 612.616943,61.517868 
z"/>
<path fill="#FBFDFF" opacity="1.000000" stroke="none" 
	d="
M394.178955,125.000778 
	C394.178680,132.772659 394.178680,140.044724 394.178680,147.575043 
	C386.626556,147.575043 379.725067,147.575043 372.485687,147.575043 
	C372.485687,119.566277 372.485687,91.831482 372.485687,63.622192 
	C378.788483,63.622192 385.150665,63.622192 391.855743,63.622192 
	C392.496124,67.984421 393.142090,72.384865 393.780212,76.731781 
	C398.375275,72.869728 402.387115,68.330574 407.389801,65.620491 
	C412.424591,62.892994 418.444763,61.984352 424.712891,60.071262 
	C424.712891,69.033249 424.712891,76.456627 424.712891,84.224228 
	C420.710815,84.457924 416.735901,84.492203 412.812012,84.957382 
	C402.314301,86.201897 396.029694,92.135330 394.949066,102.573555 
	C394.197693,109.831467 394.401917,117.188316 394.178955,125.000778 
z"/>
<path fill="#FCFDFF" opacity="1.000000" stroke="none" 
	d="
M559.957153,64.795151 
	C565.338135,63.244438 570.377869,61.857956 576.113953,60.279915 
	C576.113953,68.918739 576.113953,76.304939 576.113953,84.229370 
	C572.709290,84.398521 569.271362,84.423523 565.865051,84.764587 
	C553.230042,86.029678 546.502319,92.821091 546.072571,105.485794 
	C545.671692,117.297920 545.896545,129.131302 545.848877,140.955338 
	C545.840820,142.944565 545.847717,144.933868 545.847717,147.384216 
	C538.542969,147.384216 531.520935,147.384216 524.156982,147.384216 
	C524.156982,119.448235 524.156982,91.586044 524.156982,63.167183 
	C529.892212,63.167183 535.356018,62.973385 540.784180,63.326439 
	C541.904846,63.399326 543.500488,65.363396 543.822571,66.708359 
	C544.624878,70.058784 544.819763,73.554642 545.220764,76.695976 
	C550.037476,72.768860 554.826721,68.864120 559.957153,64.795151 
z"/>
<path fill="#4084FE" opacity="1.000000" stroke="none" 
	d="
M854.532837,91.010666 
	C854.894165,57.618446 874.481567,32.492474 905.136536,25.600922 
	C939.785400,17.811512 975.346069,41.854614 981.066650,76.938400 
	C986.994202,113.291245 961.854004,148.058884 926.052246,150.822678 
	C903.365051,152.574081 880.465515,151.558853 857.661865,151.837036 
	C853.816528,151.883942 854.562805,149.150543 854.558167,146.969467 
	C854.518616,128.482452 854.533813,109.995323 854.532837,91.010666 
M884.523193,106.934372 
	C896.000732,122.304329 916.298401,127.887665 934.551697,120.772133 
	C948.768188,115.230209 959.591797,100.643753 958.232605,85.443344 
	C952.670166,85.443344 947.074707,85.443344 941.498901,85.443344 
	C936.559814,100.406425 929.803589,106.197090 917.793274,105.812027 
	C905.719360,105.424934 899.367554,99.698402 895.243164,85.438904 
	C889.664917,85.438904 884.072632,85.438904 878.059753,85.438904 
	C877.892090,93.270493 880.077515,100.056450 884.523193,106.934372 
z"/>
<path fill="#4286FE" opacity="1.000000" stroke="none" 
	d="
M234.031708,169.471985 
	C227.254807,169.078125 220.675858,169.352646 214.561142,167.799545 
	C208.151688,166.171585 205.708908,160.711472 207.216675,155.049988 
	C208.789490,149.144287 214.177185,145.445877 220.219421,146.103943 
	C224.513245,146.571594 228.843857,146.808487 233.097809,147.512329 
	C241.100266,148.836349 244.567947,151.864914 244.978439,157.411469 
	C245.402740,163.144516 242.089890,166.891159 234.031708,169.471985 
z"/>
<path fill="#4286FE" opacity="1.000000" stroke="none" 
	d="
M239.452103,83.694954 
	C243.189957,90.254730 242.883087,96.836823 238.901443,101.134705 
	C234.548813,105.833054 225.485275,107.105133 218.902527,103.941589 
	C213.405533,101.299835 210.999512,96.197372 212.007675,89.319717 
	C213.393036,79.868835 226.360916,75.064514 235.734406,80.584663 
	C237.003525,81.332054 238.052490,82.453308 239.452103,83.694954 
z"/>
<path fill="#4487FE" opacity="1.000000" stroke="none" 
	d="
M473.285339,131.532806 
	C469.642761,131.828705 466.307709,132.393738 463.085602,132.010056 
	C456.879547,131.271118 453.116425,127.166626 453.270081,122.058083 
	C453.420166,117.068390 457.400360,112.551826 463.336273,112.152199 
	C471.063995,111.631943 478.853180,112.024986 486.634796,112.024986 
	C487.524261,119.412102 481.790100,128.025345 473.285339,131.532806 
z"/>
<path fill="#4286FE" opacity="1.000000" stroke="none" 
	d="
M686.642273,89.770622 
	C692.606262,80.946861 701.826660,77.358574 711.461060,79.867271 
	C719.858948,82.053986 724.560425,87.657951 725.412659,96.733856 
	C711.838135,96.733856 698.286499,96.733856 684.131897,96.733856 
	C684.968079,94.341484 685.711426,92.214897 686.642273,89.770622 
z"/>
<path fill="#4286FE" opacity="1.000000" stroke="none" 
	d="
M121.664001,96.961105 
	C120.893013,96.481590 120.220612,95.991486 120.265160,95.578789 
	C121.217705,86.754944 130.250793,79.497406 140.687424,79.093636 
	C150.764435,78.703789 159.301773,84.957336 160.939682,93.969879 
	C161.084198,94.765045 160.958878,95.609253 160.958878,96.986580 
	C147.951111,96.986580 135.023804,96.986580 121.664001,96.961105 
z"/>
<path fill="#FBFDFF" opacity="1.000000" stroke="none" 
	d="
M884.313232,106.637642 
	C880.077515,100.056450 877.892090,93.270493 878.059753,85.438904 
	C884.072632,85.438904 889.664917,85.438904 895.243164,85.438904 
	C899.367554,99.698402 905.719360,105.424934 917.793274,105.812027 
	C929.803589,106.197090 936.559814,100.406425 941.498901,85.443344 
	C947.074707,85.443344 952.670166,85.443344 958.232605,85.443344 
	C959.591797,100.643753 948.768188,115.230209 934.551697,120.772133 
	C916.298401,127.887665 896.000732,122.304329 884.313232,106.637642 
z"/>
</svg>